<svg width="800px" height="800px" viewBox="0 0 36 36" xmlns="http://www.w3.org/2000/svg">
  <path fill="#FFCC4D" d="M22 20c-.296.592 1.167-3.833-3-6c-1.984-1.032-10 1-4 1c3 0 4 2 2 4a2.918 2.918 0 0 0-.622.912c-.417.346-.873.709-1.378 1.088c-2.263 1.697-5.84 4.227-10 7c-3 2-4 3-4 4c0 3 9 3 14 1s10-7 10-7l4-4c-3-4-7-2-7-2z"/>
  <path fill="#FFE8B6" d="M22 20s1.792-4.729-3-7c-4.042-1.916-8-1-11 1s-2 4-3 5s1 2 3 0s8.316-4.895 11-4c3 1 2 2.999 3 5z"/>
  <path fill="#FFD983" d="M17 21c3 0 5 1 3 3c-1.581 1.581-6 5-10 6s-8 1-5-1s9.764-8 12-8z"/>
</svg>
