<?xml version="1.0" encoding="UTF-8"?>
<!-- Modified SVG: orange replaced with green -->
<svg width="100%" height="100%" version="1.1" id="Layer_1" xmlns="http://www.w3.org/2000/svg" xmlns:xlink="http://www.w3.org/1999/xlink" 
	 viewBox="0 0 511.844 405.225" xml:space="preserve">
<polygon style="fill:#4FC2E9;" points="426.541,127.957 341.239,127.957 341.239,234.598 469.2,234.598 "/>
<path style="fill:#E6E9ED;" d="M469.2,217.93l-42.659-89.973h-85.302l0.031-42.644H85.38L0,170.617v149.29v21.338v63.98h42.721
	l21.298-21.119l447.684-0.219v-42.643v-21.338v-21.337h0.141v-62.302L469.2,217.93z M64.011,362.769h-8.778l-6.225,6.186
	L33.95,383.888H21.329v-42.643v-21.338v-140.45l72.876-72.821h225.712l-0.016,21.306l-0.016,21.353h21.353h71.806l36.88,77.773
	l3.437,7.279l0.594,0.25h-116.09v128.047L64.011,362.769z"/>
<path style="fill:#4CAF50;" d="M426.604,85.314h-100.11v21.322h100.109c5.889,0,10.669-4.78,10.669-10.669
	S432.492,85.314,426.604,85.314z"/>
<polygon style="fill:#4CAF50;" points="341.239,85.314 85.38,85.314 0,170.617 0,319.906 0,341.244 0,405.225 42.721,405.225 
	64.019,384.106 341.239,383.949 "/>
<g>
	<path style="fill:#F5F7FA;" d="M257.929,189.876c-0.515-1.141-1.234-2.219-2.179-3.155c-4.163-4.171-10.911-4.171-15.074,0
		c-3.194,3.187-3.936,7.903-2.226,11.809c9.903,19.947,6.553,44.861-10.036,61.45c-13.082,13.066-31.311,17.909-48.22,14.534
		c2.726-3.053,3.569-7.521,1.789-11.488c-2.414-5.357-8.724-7.764-14.097-5.342l-19.455,8.731c-5.374,2.421-7.771,8.724-5.35,14.097
		l8.74,19.463c2.413,5.374,8.724,7.748,14.097,5.343c4.28-1.905,6.662-6.311,6.232-10.747c24.703,6.311,52.007-0.188,71.337-19.525
		C266.535,252.014,271.323,217.665,257.929,189.876z"/>
	<path style="fill:#F5F7FA;" d="M144.464,178.238c13.082-13.074,31.311-17.9,48.212-14.526c-2.718,3.046-3.562,7.513-1.781,11.48
		c2.414,5.374,8.724,7.764,14.097,5.358l19.447-8.748c5.374-2.405,7.771-8.731,5.358-14.089l-8.74-19.463
		c-2.413-5.374-8.731-7.764-14.097-5.358c-4.28,1.938-6.662,6.326-6.24,10.747c-24.696-6.311-52,0.188-71.337,19.525
		c-23.04,23.04-27.828,57.389-14.433,85.177c0.515,1.141,1.234,2.219,2.171,3.155c4.163,4.171,10.918,4.171,15.082,0
		c3.194-3.187,3.928-7.903,2.226-11.809C124.525,219.742,127.867,194.844,144.464,178.238z"/>
</g>
<g>
	<path style="fill:#424953;" d="M170.682,373.234c0,29.428-23.868,53.296-53.312,53.296s-53.32-23.868-53.32-53.296
		c0-29.46,23.876-53.328,53.32-53.328C146.815,319.906,170.682,343.775,170.682,373.234z"/>
	<path style="fill:#424953;" d="M277.321,373.234c0,29.428-23.868,53.296-53.319,53.296c-29.444,0-53.32-23.868-53.32-53.296
		c0-29.46,23.875-53.328,53.32-53.328C253.454,319.906,277.321,343.775,277.321,373.234z"/>
	<path style="fill:#424953;" d="M469.2,373.234c0,29.428-23.884,53.296-53.327,53.296c-29.444,0-53.328-23.868-53.328-53.296
		c0-29.46,23.884-53.328,53.328-53.328C445.317,319.906,469.2,343.775,469.2,373.234z"/>
</g>
<g>
	<path style="fill:#F5F7FA;" d="M128.031,373.234c0,5.873-4.772,10.652-10.661,10.652s-10.668-4.779-10.668-10.652
		c0-5.904,4.78-10.685,10.668-10.685S128.031,367.33,128.031,373.234z"/>
	<path style="fill:#F5F7FA;" d="M426.526,373.234c0,5.873-4.764,10.652-10.652,10.652s-10.653-4.779-10.653-10.652
		c0-5.904,4.765-10.685,10.653-10.685S426.526,367.33,426.526,373.234z"/>
	<path style="fill:#F5F7FA;" d="M234.663,373.234c0,5.873-4.772,10.652-10.661,10.652s-10.661-4.779-10.661-10.652
		c0-5.904,4.772-10.685,10.661-10.685C229.891,362.55,234.663,367.33,234.663,373.234z"/>
</g>
<polygon style="fill:#4CAF50;" points="0,405.225 42.721,405.225 64.019,384.106 0,384.106 "/>
</svg>
